<?xml version="1.0" encoding="utf-8"?>
<!-- Generator: Adobe Illustrator 24.0.3, SVG Export Plug-In . SVG Version: 6.00 Build 0)  -->
<svg version="1.1" id="Layer_1" xmlns="http://www.w3.org/2000/svg" xmlns:xlink="http://www.w3.org/1999/xlink" x="0px" y="0px"
	 viewBox="0 0 1440 1171.5" style="enable-background:new 0 0 1440 1171.5;" xml:space="preserve">
<style type="text/css">
	.st0{fill:#7EB2E0;}
	.st1{fill:#4C82C3;}
</style>
<path class="st0" d="M1440.11-0.18v963.81c-0.05-0.01-0.1-0.02-0.15-0.04v8.61c-52.2-11.99-154.95-42.47-185.86-54.66
	c-52.37-17.46-108.9-66.96-130.64-79.02c-34.17-19.9-102.49-6.39-138.53-46.27c-57.52-63.66-33.18-127.1-85.97-181.99
	c-47.3-49.17-118.59-3.75-169.97-53.68c-41.51-40.34-12.77-84.76-56.03-128.02c-36.42-36.41-81.13-9.03-149.23-48.52
	c-74.27-43.06-60.57-124.06-129.23-123.6c-42.52,0.28-69.27,8.5-101.36-14.92c-23.57-17.21-18.27-37.77-43.93-66.73
	c-34.91-39.42-68.56-37.31-93.76-52.94C114.42,96.41,79.92,47.37,61.23-0.18H1440.11z"/>
<path class="st0" d="M1440.11-0.18v963.81c-0.05-0.01-0.1-0.02-0.15-0.04V-0.18H1440.11z"/>
<path class="st1" d="M1440.11-0.18v963.81c-0.05-0.01-0.1-0.02-0.15-0.04c-54.87-13.64-142.7-39.95-170.86-51.05
	c-52.37-17.46-108.9-66.96-130.64-79.02c-34.17-19.9-102.49-6.39-138.53-46.27c-57.52-63.66-33.18-127.1-85.97-181.99
	c-47.3-49.17-118.59-3.75-169.97-53.68c-41.51-40.34-12.77-84.76-56.03-128.02c-36.42-36.41-81.13-9.03-149.23-48.52
	c-74.27-43.06-60.57-124.06-129.23-123.6c-42.52,0.28-69.27,8.5-101.36-14.92c-23.57-17.21-18.27-37.77-43.93-66.73
	c-34.91-39.42-68.56-37.31-93.76-52.94C130.86,92.3,97.34,45.77,78.25-0.18H1440.11z"/>
</svg>
